<svg width="540" height="434" viewBox="0 0 540 434" fill="none" xmlns="http://www.w3.org/2000/svg">
<g clip-path="url(#clip0_5_39)">
<path opacity="0.18" d="M134.938 47.1633C118.317 68.9932 107.967 96.1347 93.6419 119.98C83.044 137.798 70.1146 153.752 59.34 171.494C37.8616 206.829 24.8968 249.905 27.2637 292.943C29.6305 335.982 48.4595 378.474 79.847 402.037C99.1175 416.521 121.921 423.396 144.6 427.86C220.958 442.928 303.145 431.325 368.393 383.277C379.591 375.027 390.313 365.723 402.465 359.469C433.676 343.384 474.16 347.113 496.786 317.58C510.405 299.799 513.407 274.372 512.948 250.658C512.401 222.18 507.172 192.269 490.905 170.91C469.709 142.902 435.089 135.406 406.439 118.172C378.514 101.465 355.993 75.19 332.007 51.7214C274.301 -4.7653 191.284 -26.8401 134.938 47.1633Z" fill="#13AA78"/>
<path d="M411.791 280.927C411.795 282.669 411.463 284.395 410.815 285.995C410.168 287.596 409.22 289.037 408.029 290.231C405.99 292.297 403.358 293.571 400.557 293.847C400.034 293.895 399.508 293.895 398.985 293.847L311.252 291.964C307.889 291.925 304.672 290.488 302.287 287.959C299.902 285.43 298.537 282.008 298.482 278.422C298.476 276.679 298.803 274.953 299.444 273.35C300.085 271.747 301.025 270.3 302.209 269.098C304.645 266.629 307.892 265.276 311.252 265.331H314.237C313.62 263.021 313.305 260.632 313.301 258.23C313.296 254.797 313.949 251.4 315.218 248.245C316.488 245.091 318.348 242.246 320.685 239.885C322.747 237.782 325.138 236.08 327.75 234.856C331.134 233.283 334.798 232.512 338.489 232.596L345.943 232.765C350.58 232.866 355.106 234.293 359.049 236.897C362.992 239.502 366.207 243.187 368.357 247.569C370.507 246.479 372.867 245.944 375.246 246.006H377.171C381.165 246.05 384.984 247.753 387.818 250.753C390.651 253.754 392.275 257.815 392.344 262.073V262.845C392.343 264.312 392.14 265.772 391.744 267.177L399.003 267.328C402.374 267.376 405.595 268.823 407.983 271.362C410.37 273.901 411.736 277.332 411.791 280.927Z" fill="white"/>
<path d="M400.557 293.847C400.034 293.895 399.508 293.895 398.985 293.847L311.252 291.964C307.889 291.925 304.672 290.488 302.287 287.959C299.902 285.43 298.537 282.008 298.482 278.421C298.476 276.679 298.803 274.953 299.444 273.35C300.085 271.747 301.025 270.3 302.209 269.098C298.676 292.209 321.373 288.894 321.373 288.894H378.372L400.557 293.847Z" fill="url(#paint0_linear_5_39)"/>
<path d="M320.667 268.119L314.29 265.538C313.673 263.229 313.358 260.839 313.354 258.437C313.349 255.005 314.002 251.607 315.271 248.452C316.541 245.298 318.401 242.453 320.737 240.092C322.8 237.989 325.191 236.287 327.803 235.063C310.157 251.186 320.667 268.119 320.667 268.119Z" fill="url(#paint1_linear_5_39)"/>
<path opacity="0.23" d="M214.229 412.434C276.212 412.434 326.46 364.038 326.46 304.339C326.46 244.639 276.212 196.244 214.229 196.244C152.245 196.244 101.997 244.639 101.997 304.339C101.997 364.038 152.245 412.434 214.229 412.434Z" fill="#13AA78"/>
<path d="M353.573 286.426C353.603 311.522 345.943 335.941 331.759 355.966L331.53 356.305C315.987 378.148 293.67 393.389 268.562 399.305C243.455 405.221 217.193 401.427 194.467 388.6C171.74 375.774 154.03 354.75 144.498 329.285C134.967 303.819 134.235 275.57 142.433 249.581C150.631 223.593 167.225 201.559 189.253 187.414C211.28 173.268 237.305 167.934 262.681 172.362C288.056 176.79 311.129 190.693 327.779 211.587C344.429 232.482 353.571 259.007 353.573 286.426Z" fill="#13AA78"/>
<path d="M210.29 229.563C204.337 232.181 197.766 232.803 191.655 234.95C185.544 237.097 179.414 241.429 177.842 248.135C177.03 251.506 177.454 255.254 175.899 258.306C173.833 262.412 168.993 263.956 166.061 267.346C160.479 273.901 164.153 285.146 170.971 290.212C177.789 295.279 186.497 296.051 194.658 297.539C196.891 297.729 199.019 298.628 200.769 300.12C205.521 304.96 200.257 313.719 202.271 320.386C203.401 324.153 206.739 326.734 208.258 330.35C211.173 337.244 206.757 344.853 203.843 351.747C198.586 364.323 198.111 378.584 202.518 391.527C202.315 391.839 202.09 392.135 201.847 392.412C190.222 386.973 179.577 379.413 170.388 370.073C161.433 356.682 154.35 342.084 155.092 326.037C155.498 317.335 158.219 308.934 158.731 300.27C159.579 286.2 154.81 270.925 161.274 258.645C164.807 251.845 171.696 244.386 167.845 237.794C161.045 238.849 153.714 239.018 147.479 236.494C155.13 219.498 166.562 204.754 180.779 193.547C194.996 182.339 211.566 175.008 229.048 172.191C235.76 192.646 230.426 220.522 210.29 229.563Z" fill="url(#paint2_linear_5_39)"/>
<path d="M353.573 286.426C353.581 293.739 352.936 301.036 351.648 308.219C348.768 310.716 346.07 313.442 343.576 316.374C335.009 327.073 333.155 341.915 331.759 355.928C331.759 356.23 331.759 356.531 331.671 356.813C331.671 356.625 331.671 356.456 331.53 356.267C330.848 352.668 329.377 349.293 327.238 346.416C324.8 343.61 320.473 342.216 317.505 344.42C316.092 340.653 314.673 336.917 313.248 333.213C304.417 333.213 295.303 333.213 287.001 329.879C278.699 326.545 271.828 320.16 265.187 313.926C266.059 303.123 265.869 292.252 264.622 281.492C290.42 278.506 314.283 265.491 331.653 244.933C316.119 244.107 300.716 248.344 287.495 257.081C284.669 258.965 281.808 261.074 278.505 261.376C276.412 261.431 274.324 261.126 272.323 260.472L250.968 254.689C248.301 240.035 257.821 225.325 270.062 218.074C279.247 212.649 290.392 213.704 299.206 208.957C305.247 205.718 307.013 200.048 312.295 195.886H312.401C325.23 206.682 335.599 220.437 342.73 236.118C349.861 251.799 353.568 268.999 353.573 286.426Z" fill="url(#paint3_linear_5_39)"/>
<path d="M278.717 263.014C278.081 265.237 277.48 267.836 278.717 269.701C279.324 270.498 280.124 271.104 281.031 271.452C282.086 271.99 283.259 272.205 284.422 272.076C285.585 271.946 286.691 271.476 287.619 270.718C288.588 269.587 289.275 268.214 289.615 266.725C291.266 261.321 292.449 255.766 293.148 250.131C293.281 249.613 293.281 249.067 293.148 248.549C292.872 248.006 292.429 247.58 291.894 247.343C289.085 245.742 284.687 244.462 283.062 248.003C281.066 252.561 280.13 258.193 278.717 263.014Z" fill="#FBC4D6"/>
<path d="M287.213 265.595C287.806 265.508 288.41 265.566 288.979 265.764C289.367 265.993 289.704 266.308 289.968 266.687L296.062 273.976C297.245 275.389 298.482 277.329 297.652 279.005C297.359 279.472 296.973 279.863 296.52 280.15C296.068 280.436 295.562 280.612 295.038 280.663C292.086 280.951 289.119 280.33 286.489 278.874C284.616 278.007 282.762 276.99 280.942 276.048C279.591 275.394 278.408 274.398 277.498 273.148C276.103 270.887 275.732 265.463 278.169 263.73C279.423 262.883 280.518 263.485 281.702 264.069C283.394 265.052 285.286 265.576 287.213 265.595Z" fill="#13AA78"/>
<path d="M312.489 287.839C312.536 288.258 312.494 288.683 312.365 289.082C312.155 289.47 311.849 289.789 311.482 290.005C310.324 290.856 308.966 291.345 307.561 291.418C306.859 291.446 306.161 291.301 305.52 290.994C304.88 290.686 304.315 290.226 303.869 289.647C303.219 288.551 302.825 287.304 302.721 286.012C302.203 283.234 301.949 280.407 301.961 277.574C301.931 277.407 301.934 277.236 301.972 277.071C302.009 276.906 302.08 276.752 302.18 276.619C302.279 276.487 302.404 276.379 302.546 276.303C302.688 276.227 302.845 276.185 303.004 276.18C305.194 275.69 309.557 274.466 310.669 277.329C311.803 280.705 312.418 284.254 312.489 287.839Z" fill="#FBC4D6"/>
<path d="M321.762 287.557C323.644 287.665 325.504 288.045 327.291 288.687C328.179 289.014 328.994 289.533 329.687 290.21C330.379 290.887 330.935 291.708 331.318 292.623C331.675 293.519 331.718 294.521 331.441 295.448C330.831 296.824 329.76 297.906 328.439 298.481C322.161 302.038 315.079 303.662 307.985 303.171C306.164 303.249 304.386 302.574 303.021 301.287C302.036 299.732 301.575 297.866 301.714 295.995L301.467 287.142C303.065 287.218 304.625 287.689 306.024 288.517C308.638 289.459 309.663 287.199 311.818 286.634C314.626 285.937 318.901 287.255 321.762 287.557Z" fill="#13AA78"/>
<path d="M287.213 265.595C287.806 265.508 288.41 265.566 288.979 265.764C289.367 265.993 289.704 266.308 289.968 266.687L296.062 273.976C297.245 275.389 298.482 277.329 297.652 279.005C297.359 279.472 296.973 279.863 296.52 280.15C296.068 280.436 295.562 280.612 295.038 280.663C292.086 280.951 289.119 280.33 286.489 278.874C284.616 278.007 282.762 276.99 280.942 276.048C279.591 275.394 278.408 274.398 277.498 273.148C276.103 270.887 275.732 265.463 278.169 263.73C279.423 262.883 280.518 263.485 281.702 264.069C283.394 265.052 285.286 265.576 287.213 265.595Z" fill="url(#paint4_linear_5_39)"/>
<path d="M321.762 287.557C323.644 287.665 325.504 288.045 327.291 288.687C328.179 289.014 328.994 289.533 329.687 290.21C330.379 290.887 330.935 291.708 331.318 292.623C331.675 293.519 331.718 294.521 331.441 295.448C330.831 296.824 329.76 297.906 328.439 298.481C322.161 302.038 315.079 303.662 307.985 303.171C306.164 303.249 304.386 302.574 303.021 301.287C302.036 299.732 301.575 297.866 301.714 295.995L301.467 287.142C303.065 287.218 304.625 287.689 306.024 288.517C308.638 289.459 309.663 287.199 311.818 286.634C314.626 285.937 318.901 287.255 321.762 287.557Z" fill="url(#paint5_linear_5_39)"/>
<path d="M221.135 191.648C217.335 191.296 213.512 191.359 209.724 191.836C209.229 191.863 208.749 192.025 208.329 192.307C208.088 192.549 207.895 192.841 207.761 193.165C207.628 193.488 207.556 193.837 207.552 194.191C207.022 199.653 211.084 204.399 215.465 207.281C227.317 215.116 242.26 214.815 255.348 219.938C256.597 220.291 257.706 221.064 258.51 222.142C259.056 223.31 259.323 224.604 259.287 225.909C259.87 233.274 263.703 239.904 264.975 247.155C266.247 254.407 264.887 261.997 265.929 269.305C270.221 264.427 277.533 263.655 281.826 258.833C285.853 254.388 286.648 247.758 287.248 241.618L288.873 224.779C289.174 223.565 289.05 222.275 288.523 221.151C287.996 220.028 287.103 219.148 286.012 218.676C266.688 205.36 244.044 193.757 221.135 191.648Z" fill="url(#paint6_linear_5_39)"/>
<path d="M299.277 189.953C301.062 190.335 302.717 191.226 304.063 192.533C305.445 194.584 306.073 197.104 305.83 199.615C305.788 217.487 302.619 235.194 296.486 251.826C296.428 252.411 296.237 252.971 295.929 253.459C295.622 253.947 295.206 254.346 294.72 254.623C294.234 254.9 293.691 255.046 293.14 255.048C292.589 255.049 292.046 254.907 291.558 254.633C287.885 253.576 284.265 252.318 280.713 250.866L285.517 216.962C285.746 216.021 285.697 215.028 285.376 214.118C285.021 213.473 284.524 212.93 283.927 212.536C278.448 208.285 272.659 204.507 266.618 201.235C261.795 198.636 256.267 195.584 254.96 190.085C254.689 189.145 254.634 188.149 254.8 187.182C254.966 186.215 255.348 185.305 255.914 184.528C256.678 183.728 257.577 183.089 258.563 182.645C261.76 180.968 265.787 178.878 269.461 179.217C272.411 179.537 273.541 181.345 275.997 182.682C282.815 186.299 291.876 187.655 299.277 189.953Z" fill="#282328"/>
<path d="M266.459 136.028C268.825 142.978 269.991 150.342 272.075 157.368C272.532 159.23 273.35 160.969 274.478 162.472C275.976 164.005 277.791 165.14 279.777 165.787C282.544 166.93 285.358 167.928 288.22 168.782C290.127 169.328 292.406 170.27 292.618 172.342C292.663 173.033 292.528 173.724 292.229 174.338C291.491 175.742 290.428 176.92 289.142 177.76C287.856 178.601 286.389 179.077 284.881 179.141C281.872 179.227 278.875 178.703 276.05 177.597C273.477 177.041 271.116 175.685 269.267 173.698C268.216 172.046 267.478 170.19 267.094 168.236C264.196 157.263 260.174 146.665 255.101 136.63C253.584 133.98 252.396 131.131 251.568 128.154C250.403 122.956 250.385 110.638 255.419 115.158C259.482 118.812 264.675 130.867 266.459 136.028Z" fill="#FBC4D6"/>
<path d="M247.188 189.293C250.166 188.063 253.063 186.622 255.861 184.98C266.459 178.727 257.786 175.657 254.253 168.142C251.727 162.811 252.752 156.426 254.059 150.644C256.373 140.473 259.464 129.925 257.238 119.773C256.96 118.125 256.358 116.559 255.472 115.177C254.824 114.32 254.076 113.554 253.246 112.898C251.009 110.837 248.434 109.234 245.651 108.17C240.352 106.287 234.347 107.662 229.313 110.355C209.53 120.941 205.309 147.668 206.103 169.046C206.315 174.979 207.181 181.251 210.767 185.79C214.352 190.329 219.421 192.062 224.614 192.74C232.29 193.577 240.041 192.393 247.188 189.293Z" fill="white"/>
<path d="M217.69 177.201C217.85 179.208 218.456 181.145 219.457 182.852C221.223 185.508 224.473 186.487 227.458 187.259L240.9 190.8C242.538 191.33 244.24 191.603 245.952 191.61C249.626 191.422 252.787 188.917 255.702 186.506C256.446 185.962 257.093 185.28 257.609 184.491C250.191 183.737 242.79 182.946 235.407 181.797C231.062 181.119 226.469 180.177 223.272 176.994C221.62 175.254 220.364 173.135 219.598 170.797C219.068 169.347 218.821 165.655 217.284 165.335C216.897 169.291 217.034 173.286 217.69 177.201Z" fill="url(#paint7_linear_5_39)"/>
<path d="M244.221 124.727C244.219 125.32 243.997 125.889 243.602 126.309C243.235 126.539 242.806 126.632 242.384 126.572C240.999 126.503 239.645 126.118 238.412 125.444C237.179 124.77 236.096 123.822 235.236 122.663C234.376 121.505 233.758 120.163 233.425 118.729C233.092 117.295 233.051 115.801 233.305 114.348C233.623 112.465 234.382 110.845 234.859 109.074C235.795 105.533 235.636 101.54 237.738 98.621C239.558 103.061 241.634 107.376 243.956 111.542C244.549 112.37 244.961 113.329 245.163 114.349C245.365 115.369 245.351 116.424 245.121 117.437L244.221 124.727Z" fill="#FBC4D6"/>
<path d="M245.263 115.61L244.468 121.261C244.468 121.261 235.371 116.458 236.555 107.549C237.738 98.6398 245.263 115.61 245.263 115.61Z" fill="url(#paint8_linear_5_39)"/>
<path d="M255.896 110.11C255.429 111.921 254.441 113.528 253.07 114.706C252.416 115.179 251.685 115.517 250.915 115.704C248.21 116.264 245.409 115.897 242.912 114.655C240.415 113.413 238.35 111.361 237.014 108.792C235.754 106.19 235.036 103.328 234.908 100.402C234.78 97.477 235.245 94.5565 236.272 91.8403C237.113 88.8612 239.015 86.3524 241.571 84.8524C242.968 84.2648 244.48 84.0553 245.972 84.2427C247.464 84.43 248.889 85.0084 250.12 85.9261C253.466 88.4171 256.052 91.9015 257.556 95.9464C258.846 100.071 257.221 106.174 255.896 110.11Z" fill="#FBC4D6"/>
<path d="M295.832 213.628C298.096 216.703 299.885 220.143 301.131 223.818C308.078 241.682 312.592 260.513 314.538 279.74C308.866 280.493 303.129 280.493 297.457 279.74C297.013 266.166 295.051 252.698 291.611 239.621C291.003 236.806 289.958 234.12 288.52 231.673C285.994 227.774 281.843 225.513 277.922 223.404C268.747 218.649 259.157 214.864 249.29 212.103C245.121 210.879 240.918 209.748 236.82 208.336C233.375 207.093 223.714 202.535 220.923 200.067C219.46 198.885 218.237 197.399 217.326 195.7C216.416 194.001 215.837 192.123 215.624 190.179C215.624 191.158 242.543 193.117 244.468 192.891C250.95 192.156 258.598 188.201 264.992 191.007C269.991 193.192 274.566 197.75 279.123 200.896C284.652 204.588 291.399 208.166 295.832 213.628Z" fill="#473F47"/>
<path d="M266.335 212.178L233.481 195.057L272.005 177.634L304.876 192.947L266.335 212.178Z" fill="#13AA78"/>
<path d="M216.295 131.79C216.295 132.449 216.136 133.089 216.065 133.673C215.094 143.317 215.977 152.772 216.313 162.359C216.525 168.292 217.249 179.593 223.166 182.626C234.223 188.276 255.56 186.129 255.56 186.129C258.034 185.706 260.563 185.815 262.997 186.449C264.321 186.883 265.54 187.617 266.829 188.145C271.493 190.028 276.703 189.086 281.614 188.145C282.46 188.037 283.277 187.749 284.016 187.297C284.873 186.485 285.396 185.347 285.472 184.127C285.548 182.908 285.171 181.705 284.422 180.78C282.828 178.994 280.755 177.777 278.487 177.295C272.286 175.137 265.644 174.863 259.305 176.504C258.495 176.795 257.669 177.034 256.832 177.22C255.851 177.39 254.858 177.465 253.865 177.446H246.34C237.685 177.446 229.525 177.559 228.218 166.767C227.735 162.769 227.64 158.73 227.935 154.712C228.447 147.461 230.231 140.266 229.86 133.014C229.838 130.714 229.299 128.454 228.288 126.422C227.776 125.413 227.03 124.561 226.121 123.948C225.211 123.334 224.17 122.98 223.095 122.918C221.983 123.007 220.911 123.4 219.982 124.06C219.054 124.72 218.301 125.624 217.796 126.685C217.015 128.278 216.506 130.006 216.295 131.79Z" fill="#FBC4D6"/>
<path d="M318.406 158.404L272.482 183.323L266.335 212.178L304.876 192.947L318.406 158.404Z" fill="#13AA78"/>
<path d="M258.157 99.7134C258.106 97.9202 257.483 96.1991 256.391 94.8351C255.836 94.1486 255.179 93.5632 254.448 93.1023C253.423 92.4619 253.176 92.4054 252.505 93.4413C251.639 94.7786 251.357 96.3419 250.562 97.7357C249.692 99.2816 248.479 100.575 247.029 101.503C245.4 102.581 243.505 103.112 241.589 103.028C240.828 102.906 240.054 102.906 239.293 103.028C239.037 103.08 238.795 103.191 238.584 103.354C238.374 103.517 238.199 103.727 238.074 103.97C237.892 104.675 237.826 105.408 237.88 106.136C237.721 108.02 235.972 109.357 235 110.996C234.029 112.634 233.746 115.064 232.581 116.816C232.364 117.167 232.066 117.453 231.715 117.644C230.885 118.021 229.949 117.531 229.083 117.362C226.522 116.891 224.455 119.434 222.265 120.978C217.867 124.067 212.109 123.276 206.916 122.353C205.326 122.148 203.776 121.678 202.324 120.959C200.754 119.972 199.361 118.697 198.208 117.192C196.283 114.932 194.375 112.634 192.485 110.336C191.783 109.601 191.224 108.724 190.842 107.756C190.64 107.081 190.586 106.366 190.683 105.665C190.856 104.357 191.219 103.086 191.761 101.898C193.139 98.6021 194.746 95.0234 197.855 93.5355C200.963 92.0475 204.637 93.1588 208.064 92.7821C208.482 92.7811 208.889 92.643 209.23 92.3865C209.503 92.0579 209.697 91.6637 209.795 91.2376C211.226 86.1709 213.01 80.671 217.284 78.053C220.578 76.3657 224.291 75.8444 227.882 76.565C231.438 77.2814 235.065 77.503 238.674 77.2242C240.441 76.9228 242.207 76.3013 243.973 75.9246C248.104 74.9459 252.427 75.616 256.126 77.8081C257.951 78.9663 259.478 80.5897 260.569 82.5327C261.66 84.4756 262.282 86.6772 262.378 88.9397C262.308 89.8233 262.308 90.7118 262.378 91.5954C262.502 92.4242 262.838 93.2341 262.961 94.0629C263.034 94.7792 262.963 95.5037 262.754 96.1888C262.545 96.8739 262.202 97.5041 261.748 98.0378C261.294 98.5716 260.74 98.9968 260.121 99.2856C259.502 99.5744 258.832 99.7202 258.157 99.7134Z" fill="#FF681C"/>
<path d="M214.688 137.139C214.143 142.469 214.084 147.844 214.511 153.186C214.49 153.65 214.601 154.11 214.829 154.505C215.205 154.943 215.722 155.213 216.277 155.258C219.138 155.826 222.04 156.122 224.95 156.144C225.358 156.283 225.79 156.324 226.215 156.265C226.64 156.206 227.048 156.047 227.409 155.801C227.77 155.554 228.075 155.226 228.304 154.839C228.532 154.452 228.678 154.017 228.73 153.563C230.32 146.481 231.892 139.399 233.093 132.223C233.57 129.341 233.905 126.101 232.28 123.766C229.931 120.376 223.59 119.999 220.534 122.466C216.843 125.499 215.271 132.581 214.688 137.139Z" fill="white"/>
<path d="M264.675 128.098L269.673 140.868C269.92 141.365 270.019 141.93 269.956 142.488C269.829 142.946 269.584 143.357 269.249 143.675C266.808 146.428 263.909 148.676 260.7 150.305C257.742 147.486 255.34 144.067 253.635 140.247C251.975 135.707 252.346 130.66 252.84 125.819C253.141 122.749 253.035 112.879 257.927 116.703C261.336 119.321 263.138 124.161 264.675 128.098Z" fill="white"/>
<path d="M174.257 247.89C174.258 249.631 173.927 251.354 173.283 252.953C172.639 254.553 171.697 255.996 170.512 257.194C168.471 259.257 165.84 260.53 163.041 260.811C162.517 260.839 161.992 260.839 161.469 260.811L73.7355 258.927C70.3674 258.888 67.1464 257.449 64.758 254.917C62.3696 252.384 61.0024 248.957 60.9474 245.366C60.9458 243.625 61.277 241.902 61.9208 240.302C62.5647 238.702 63.5076 237.259 64.692 236.061C65.8929 234.83 67.3099 233.863 68.8618 233.217C70.4136 232.57 72.0699 232.257 73.7355 232.294H76.7206C76.0949 229.98 75.7797 227.583 75.7845 225.174C75.7785 221.742 76.4303 218.344 77.6999 215.189C78.9695 212.034 80.8302 209.189 83.1677 206.829C85.2272 204.728 87.6192 203.031 90.233 201.819C93.6168 200.244 97.2811 199.473 100.972 199.559L108.426 199.728C113.034 199.82 117.537 201.218 121.47 203.781C125.403 206.343 128.625 209.976 130.805 214.307C132.96 213.234 135.316 212.699 137.694 212.743H139.619C143.611 212.797 147.426 214.506 150.255 217.509C153.085 220.512 154.706 224.572 154.774 228.828V229.601C154.781 231.061 154.585 232.515 154.191 233.914L161.451 234.084C164.862 234.118 168.121 235.589 170.52 238.175C172.918 240.761 174.262 244.253 174.257 247.89Z" fill="white"/>
<path d="M163.041 260.811C162.517 260.839 161.992 260.839 161.469 260.811L73.7355 258.927C70.3674 258.888 67.1464 257.449 64.758 254.917C62.3696 252.384 61.0024 248.957 60.9474 245.366C60.9458 243.625 61.277 241.902 61.9208 240.302C62.5647 238.702 63.5076 237.259 64.692 236.061C61.2477 259.153 83.8565 255.857 83.8565 255.857H140.856L163.041 260.811Z" fill="url(#paint9_linear_5_39)"/>
<path d="M83.0794 235.082L76.7206 232.501C76.0949 230.187 75.7797 227.79 75.7845 225.382C75.7785 221.949 76.4303 218.551 77.6999 215.396C78.9695 212.241 80.8302 209.397 83.1677 207.036C85.2272 204.935 87.6192 203.239 90.233 202.026C72.6228 218.149 83.0794 235.082 83.0794 235.082Z" fill="url(#paint10_linear_5_39)"/>
<path d="M405.68 138.42C405.681 140.162 405.348 141.887 404.701 143.487C404.054 145.087 403.107 146.529 401.918 147.724C399.869 149.787 397.233 151.06 394.428 151.341C393.905 151.388 393.379 151.388 392.856 151.341L305.141 149.457C301.802 149.409 298.609 147.984 296.235 145.48C293.86 142.976 292.488 139.588 292.406 136.028C292.387 134.269 292.709 132.525 293.35 130.905C293.991 129.285 294.938 127.823 296.133 126.61C298.576 124.141 301.828 122.789 305.194 122.843H308.161C307.544 120.533 307.229 118.144 307.225 115.742C307.22 112.309 307.873 108.912 309.142 105.757C310.412 102.603 312.272 99.7578 314.608 97.3967C316.668 95.2911 319.06 93.5887 321.674 92.3677C325.057 90.7915 328.722 90.0202 332.413 90.1075L339.867 90.277C344.475 90.3677 348.977 91.7685 352.908 94.3346C356.839 96.9006 360.057 100.539 362.228 104.874C364.378 103.786 366.738 103.251 369.117 103.311H371.042C375.035 103.354 378.855 105.058 381.689 108.058C384.522 111.059 386.146 115.12 386.215 119.377V120.15C386.214 121.617 386.011 123.077 385.614 124.482L392.874 124.632C396.279 124.677 399.53 126.148 401.926 128.728C404.323 131.307 405.671 134.789 405.68 138.42Z" fill="white"/>
<path d="M394.446 151.341C393.923 151.388 393.397 151.388 392.874 151.341L305.159 149.457C301.816 149.414 298.62 147.991 296.241 145.486C293.863 142.982 292.488 139.591 292.406 136.028C292.387 134.269 292.709 132.525 293.35 130.905C293.991 129.285 294.938 127.823 296.133 126.61C292.6 149.721 315.297 146.406 315.297 146.406H372.296L394.446 151.341Z" fill="url(#paint11_linear_5_39)"/>
<path d="M314.502 125.612L308.126 123.031C307.509 120.722 307.194 118.332 307.19 115.93C307.185 112.498 307.837 109.1 309.107 105.946C310.376 102.791 312.236 99.9461 314.573 97.585C316.633 95.4794 319.025 93.7771 321.638 92.556C304.046 108.679 314.502 125.612 314.502 125.612Z" fill="url(#paint12_linear_5_39)"/>
<path d="M239.416 103.066C239.161 103.118 238.919 103.229 238.708 103.392C238.497 103.554 238.323 103.765 238.197 104.008C238.015 104.712 237.949 105.445 238.003 106.174C237.844 108.057 236.096 109.395 235.124 111.033C234.153 112.672 233.87 115.102 232.704 116.853C232.488 117.205 232.19 117.49 231.839 117.682C231.009 118.059 230.072 117.569 229.207 117.4C226.646 116.929 224.579 119.471 222.389 121.016C217.991 124.105 212.233 123.314 207.04 122.391C205.406 122.188 203.813 121.704 202.324 120.959C200.754 119.972 199.361 118.697 198.208 117.192C196.283 114.932 194.375 112.634 192.485 110.336C191.783 109.601 191.224 108.724 190.842 107.756C190.64 107.081 190.586 106.366 190.683 105.665C191.507 105.135 192.363 104.663 193.245 104.253C195.952 102.703 199.117 102.332 202.076 103.217C204.443 104.196 206.121 106.438 208.152 108.039C210.985 110.154 214.431 111.125 217.874 110.78C221.317 110.435 224.532 108.796 226.946 106.155C227.836 104.904 228.882 103.789 230.055 102.84C232.157 101.616 236.431 101.804 239.416 103.066Z" fill="url(#paint13_linear_5_39)"/>
</g>
<defs>
<linearGradient id="paint0_linear_5_39" x1="353.114" y1="335.85" x2="344.023" y2="226.018" gradientUnits="userSpaceOnUse">
<stop offset="0.01"/>
<stop offset="0.13" stop-opacity="0.69"/>
<stop offset="0.25" stop-opacity="0.32"/>
<stop offset="1" stop-opacity="0"/>
</linearGradient>
<linearGradient id="paint1_linear_5_39" x1="273.647" y1="276.67" x2="365.94" y2="236.4" gradientUnits="userSpaceOnUse">
<stop offset="0.01"/>
<stop offset="0.13" stop-opacity="0.69"/>
<stop offset="0.25" stop-opacity="0.32"/>
<stop offset="1" stop-opacity="0"/>
</linearGradient>
<linearGradient id="paint2_linear_5_39" x1="203.966" y1="482.84" x2="161.746" y2="-217.881" gradientUnits="userSpaceOnUse">
<stop offset="0.01"/>
<stop offset="0.13" stop-opacity="0.69"/>
<stop offset="0.25" stop-opacity="0.32"/>
<stop offset="1" stop-opacity="0"/>
</linearGradient>
<linearGradient id="paint3_linear_5_39" x1="313.16" y1="476.266" x2="270.92" y2="-224.473" gradientUnits="userSpaceOnUse">
<stop offset="0.01"/>
<stop offset="0.13" stop-opacity="0.69"/>
<stop offset="0.25" stop-opacity="0.32"/>
<stop offset="1" stop-opacity="0"/>
</linearGradient>
<linearGradient id="paint4_linear_5_39" x1="296.61" y1="267.045" x2="261.778" y2="283.25" gradientUnits="userSpaceOnUse">
<stop offset="0.01"/>
<stop offset="0.13" stop-opacity="0.69"/>
<stop offset="0.25" stop-opacity="0.32"/>
<stop offset="1" stop-opacity="0"/>
</linearGradient>
<linearGradient id="paint5_linear_5_39" x1="324.27" y1="314.189" x2="302.332" y2="267.904" gradientUnits="userSpaceOnUse">
<stop offset="0.01"/>
<stop offset="0.13" stop-opacity="0.69"/>
<stop offset="0.25" stop-opacity="0.32"/>
<stop offset="1" stop-opacity="0"/>
</linearGradient>
<linearGradient id="paint6_linear_5_39" x1="292.353" y1="155.748" x2="156.469" y2="332.363" gradientUnits="userSpaceOnUse">
<stop offset="0.01"/>
<stop offset="0.13" stop-opacity="0.69"/>
<stop offset="0.25" stop-opacity="0.32"/>
<stop offset="1" stop-opacity="0"/>
</linearGradient>
<linearGradient id="paint7_linear_5_39" x1="261.937" y1="136.819" x2="178.339" y2="251.011" gradientUnits="userSpaceOnUse">
<stop offset="0.01"/>
<stop offset="0.13" stop-opacity="0.69"/>
<stop offset="0.25" stop-opacity="0.32"/>
<stop offset="1" stop-opacity="0"/>
</linearGradient>
<linearGradient id="paint8_linear_5_39" x1="246.87" y1="99.2425" x2="228.86" y2="136.15" gradientUnits="userSpaceOnUse">
<stop offset="0.01"/>
<stop offset="0.13" stop-opacity="0.69"/>
<stop offset="0.25" stop-opacity="0.32"/>
<stop offset="1" stop-opacity="0"/>
</linearGradient>
<linearGradient id="paint9_linear_5_39" x1="115.597" y1="302.813" x2="106.486" y2="192.963" gradientUnits="userSpaceOnUse">
<stop offset="0.01"/>
<stop offset="0.13" stop-opacity="0.69"/>
<stop offset="0.25" stop-opacity="0.32"/>
<stop offset="1" stop-opacity="0"/>
</linearGradient>
<linearGradient id="paint10_linear_5_39" x1="36.113" y1="243.614" x2="128.421" y2="203.362" gradientUnits="userSpaceOnUse">
<stop offset="0.01"/>
<stop offset="0.13" stop-opacity="0.69"/>
<stop offset="0.25" stop-opacity="0.32"/>
<stop offset="1" stop-opacity="0"/>
</linearGradient>
<linearGradient id="paint11_linear_5_39" x1="347.02" y1="193.343" x2="337.909" y2="83.5116" gradientUnits="userSpaceOnUse">
<stop offset="0.01"/>
<stop offset="0.13" stop-opacity="0.69"/>
<stop offset="0.25" stop-opacity="0.32"/>
<stop offset="1" stop-opacity="0"/>
</linearGradient>
<linearGradient id="paint12_linear_5_39" x1="267.536" y1="134.163" x2="359.828" y2="93.8927" gradientUnits="userSpaceOnUse">
<stop offset="0.01"/>
<stop offset="0.13" stop-opacity="0.69"/>
<stop offset="0.25" stop-opacity="0.32"/>
<stop offset="1" stop-opacity="0"/>
</linearGradient>
<linearGradient id="paint13_linear_5_39" x1="260.4" y1="144.296" x2="151.169" y2="66.1966" gradientUnits="userSpaceOnUse">
<stop offset="0.01"/>
<stop offset="0.13" stop-opacity="0.69"/>
<stop offset="0.25" stop-opacity="0.32"/>
<stop offset="1" stop-opacity="0"/>
</linearGradient>
<clipPath id="clip0_5_39">
<rect width="540" height="434" fill="white"/>
</clipPath>
</defs>
</svg>
